<svg width="1200" height="430" viewBox="0 0 1200 430" fill="none" xmlns="http://www.w3.org/2000/svg">
  <defs>
    <linearGradient id="bg" x1="40" y1="20" x2="1160" y2="410" gradientUnits="userSpaceOnUse">
      <stop stop-color="#07111F"/>
      <stop offset="0.52" stop-color="#0A101B"/>
      <stop offset="1" stop-color="#05080F"/>
    </linearGradient>
    <linearGradient id="edge" x1="0" y1="0" x2="1200" y2="430" gradientUnits="userSpaceOnUse">
      <stop stop-color="#10B981"/>
      <stop offset="0.5" stop-color="#22D3EE"/>
      <stop offset="1" stop-color="#F59E0B"/>
    </linearGradient>
    <linearGradient id="title" x1="68" y1="142" x2="690" y2="210" gradientUnits="userSpaceOnUse">
      <stop stop-color="#F8FAFC"/>
      <stop offset="0.72" stop-color="#D9FDF2"/>
      <stop offset="1" stop-color="#67E8F9"/>
    </linearGradient>
    <radialGradient id="core" cx="0" cy="0" r="1" gradientTransform="translate(960 209) rotate(90) scale(123)">
      <stop stop-color="#22D3EE" stop-opacity="0.25"/>
      <stop offset="0.55" stop-color="#10B981" stop-opacity="0.08"/>
      <stop offset="1" stop-color="#020617" stop-opacity="0"/>
    </radialGradient>
    <pattern id="grid" width="34" height="34" patternUnits="userSpaceOnUse">
      <path d="M34 0H0V34" stroke="#94A3B8" stroke-opacity="0.055"/>
    </pattern>
    <filter id="glow" x="-100%" y="-100%" width="300%" height="300%">
      <feGaussianBlur stdDeviation="5" result="blur"/>
      <feMerge>
        <feMergeNode in="blur"/>
        <feMergeNode in="SourceGraphic"/>
      </feMerge>
    </filter>
    <clipPath id="frame">
      <rect x="1" y="1" width="1198" height="428" rx="28"/>
    </clipPath>
  </defs>

  <g clip-path="url(#frame)">
    <rect x="1" y="1" width="1198" height="428" rx="28" fill="url(#bg)"/>
    <rect x="1" y="1" width="1198" height="428" rx="28" fill="url(#grid)"/>
    <circle cx="960" cy="209" r="165" fill="url(#core)">
      <animate attributeName="opacity" values="0.72;1;0.72" dur="4s" repeatCount="indefinite"/>
    </circle>
    <path d="M0 364C193 314 341 421 560 374C777 327 921 314 1200 380V430H0V364Z" fill="#0F766E" fill-opacity="0.055"/>
    <path d="M0 392C253 332 374 421 616 386C835 355 1017 353 1200 401" stroke="#10B981" stroke-opacity="0.13"/>

    <g opacity="0.9">
      <circle cx="72" cy="46" r="4" fill="#10B981" filter="url(#glow)"/>
      <text x="87" y="51" fill="#94A3B8" font-family="Inter,Segoe UI,Arial,sans-serif" font-size="13" font-weight="600" letter-spacing="2">ANAS.LAHRAOUI / PROFILE SYSTEM</text>
      <rect x="1000" y="31" width="150" height="28" rx="14" fill="#0F172A" stroke="#10B981" stroke-opacity="0.35"/>
      <circle cx="1020" cy="45" r="4" fill="#10B981">
        <animate attributeName="opacity" values="1;0.25;1" dur="1.8s" repeatCount="indefinite"/>
      </circle>
      <text x="1032" y="50" fill="#A7F3D0" font-family="Inter,Segoe UI,Arial,sans-serif" font-size="11" font-weight="700" letter-spacing="1.3">SYSTEM ONLINE</text>
    </g>

    <text x="68" y="112" fill="#10B981" font-family="Inter,Segoe UI,Arial,sans-serif" font-size="15" font-weight="800" letter-spacing="4">AI PRODUCT ENGINEER  //  MOROCCO</text>
    <text x="66" y="181" fill="url(#title)" font-family="Inter,Segoe UI,Arial,sans-serif" font-size="58" font-weight="850" letter-spacing="-1.8">ANAS LAHRAOUI</text>
    <text x="70" y="222" fill="#94A3B8" font-family="Inter,Segoe UI,Arial,sans-serif" font-size="20" font-weight="500">From model → API → product → proof.</text>

    <g font-family="Inter,Segoe UI,Arial,sans-serif" font-size="12" font-weight="750" letter-spacing="1">
      <rect x="68" y="260" width="159" height="38" rx="10" fill="#10B981" fill-opacity="0.09" stroke="#10B981" stroke-opacity="0.45"/>
      <text x="87" y="284" fill="#A7F3D0">MACHINE LEARNING</text>
      <rect x="239" y="260" width="153" height="38" rx="10" fill="#22D3EE" fill-opacity="0.07" stroke="#22D3EE" stroke-opacity="0.38"/>
      <text x="261" y="284" fill="#A5F3FC">COMPUTER VISION</text>
      <rect x="404" y="260" width="132" height="38" rx="10" fill="#8B5CF6" fill-opacity="0.08" stroke="#8B5CF6" stroke-opacity="0.4"/>
      <text x="426" y="284" fill="#DDD6FE">FULL-STACK</text>
      <rect x="548" y="260" width="111" height="38" rx="10" fill="#F59E0B" fill-opacity="0.08" stroke="#F59E0B" stroke-opacity="0.4"/>
      <text x="574" y="284" fill="#FDE68A">AI SAAS</text>
    </g>

    <g font-family="Fira Code,Consolas,monospace" font-size="12">
      <text x="70" y="348" fill="#475569">01</text>
      <text x="98" y="348" fill="#64748B">LICENCE_SIIA</text>
      <text x="230" y="348" fill="#10B981">COMPLETED</text>
      <text x="70" y="372" fill="#475569">02</text>
      <text x="98" y="372" fill="#64748B">MASTER_AI</text>
      <text x="230" y="372" fill="#F59E0B">SEP_2026</text>
      <text x="70" y="396" fill="#475569">03</text>
      <text x="98" y="396" fill="#64748B">CURRENT_MODE</text>
      <text x="230" y="396" fill="#22D3EE">BUILD_TEST_SHIP</text>
    </g>

    <g transform="translate(960 210)">
      <circle r="112" stroke="#22D3EE" stroke-opacity="0.16" stroke-width="1.2" stroke-dasharray="7 10">
        <animateTransform attributeName="transform" type="rotate" from="0" to="360" dur="28s" repeatCount="indefinite"/>
      </circle>
      <circle r="82" stroke="#10B981" stroke-opacity="0.28" stroke-width="1.5" stroke-dasharray="3 8">
        <animateTransform attributeName="transform" type="rotate" from="360" to="0" dur="18s" repeatCount="indefinite"/>
      </circle>
      <path d="M-76 -53L-19 -12L45 -66L72 5L29 66L-39 54L-76 -53Z" stroke="url(#edge)" stroke-width="1.5" stroke-opacity="0.65" fill="#0F172A" fill-opacity="0.55" stroke-dasharray="8 7">
        <animate attributeName="stroke-dashoffset" values="0;-60" dur="6s" repeatCount="indefinite"/>
      </path>
      <path d="M-19 -12L29 66M-19 -12L72 5M45 -66L-39 54M-76 -53L29 66" stroke="#38BDF8" stroke-width="1" stroke-opacity="0.3"/>

      <g filter="url(#glow)">
        <circle cx="-76" cy="-53" r="5" fill="#10B981"/>
        <circle cx="-19" cy="-12" r="7" fill="#22D3EE"/>
        <circle cx="45" cy="-66" r="5" fill="#8B5CF6"/>
        <circle cx="72" cy="5" r="5" fill="#F59E0B"/>
        <circle cx="29" cy="66" r="5" fill="#10B981"/>
        <circle cx="-39" cy="54" r="5" fill="#22D3EE"/>
        <circle r="13" fill="#E2E8F0" fill-opacity="0.9"/>
        <circle r="6" fill="#0F766E">
          <animate attributeName="r" values="5;8;5" dur="2.4s" repeatCount="indefinite"/>
        </circle>
      </g>

      <g fill="#64748B" font-family="Fira Code,Consolas,monospace" font-size="10" letter-spacing="1">
        <text x="-154" y="-85">DATA</text>
        <text x="86" y="-86">MODEL</text>
        <text x="92" y="77">PRODUCT</text>
        <text x="-145" y="88">API</text>
      </g>
    </g>

    <g fill="#334155" font-family="Fira Code,Consolas,monospace" font-size="9">
      <text x="1110" y="107">101101</text>
      <text x="1086" y="122">01001101</text>
      <text x="1118" y="333">011010</text>
      <text x="1087" y="348">11010010</text>
    </g>
  </g>

  <rect x="1" y="1" width="1198" height="428" rx="28" stroke="url(#edge)" stroke-opacity="0.5" stroke-width="2"/>
</svg>
